<svg width="32" height="32" xmlns="http://www.w3.org/2000/svg"><path d="M16.026 0C7.175 0 0 7.163 0 16s7.175 16 16.026 16h.022c8.625 0 15.93-7.27 15.952-15.888C32.028 7.265 24.886.062 16.026 0zm6.92 26.994a12.23 12.23 0 01-6.852 2.005c-.255 0-.509-.007-.763-.022a12.944 12.944 0 01-8.049-3.388 13.06 13.06 0 01-4.188-8.128 12.715 12.715 0 011.892-8.37L5.691 8 24 26.267l-1.054.727zm3.922-4.014l-.71 1.02L8 5.833l1.017-.71a12.445 12.445 0 018.05-2.074 12.954 12.954 0 0111.889 11.94 12.382 12.382 0 01-2.088 7.991z" fill="#CC0001" fill-rule="nonzero"/></svg>