<svg width="268" height="59" viewBox="0 0 268 59" fill="none" xmlns="http://www.w3.org/2000/svg">
<path fill-rule="evenodd" clip-rule="evenodd" d="M247.007 44.7977C249.884 44.7977 252.358 43.8772 254.371 42.2663V44.1073H264.727V2.6848H254.371V16.6074C252.358 14.9965 249.884 14.076 247.007 14.076C239.068 14.076 233.142 20.6921 233.142 29.4369C233.142 38.1816 239.068 44.7977 247.007 44.7977ZM131.689 55.7287L142.332 52.7371C140.952 46.6963 136.522 43.1869 130.366 43.1869H122.197C121.103 43.1869 120.356 42.6115 120.356 41.7486C120.356 41.0582 120.816 40.3678 121.621 39.9076C122.599 40.0802 123.635 40.1952 124.67 40.1952C132.725 40.1952 138.881 34.6147 138.881 27.1356C138.881 24.6042 138.19 22.303 136.925 20.3469C137.27 19.599 138.133 19.1963 139.168 19.1963H141.239V9.64609H138.65C134.393 9.64609 131.229 11.7172 130.193 15.054C128.525 14.4212 126.684 14.076 124.67 14.076C116.558 14.076 110.46 19.6565 110.46 27.1356C110.46 30.7601 111.898 33.9243 114.257 36.2256C111.611 37.8364 110 41.0582 110 44.395C110 49.6304 114.027 53.1973 120.125 53.1973H128.352C130.136 53.1973 131.402 54.1753 131.689 55.7287ZM88.5726 44.1073L92.7149 36.9735L96.9147 44.1073H109.457L99.7337 29.3793L109.284 14.7664H96.8571L92.8875 21.7277L88.8603 14.7664H76.3185L85.8687 29.3793L76.1459 44.1073H88.5726ZM121.103 27.1356C121.103 29.0341 122.599 30.4149 124.67 30.4149C126.684 30.4149 128.237 29.0341 128.237 27.1356C128.237 25.2371 126.684 23.8563 124.67 23.8563C122.599 23.8563 121.103 25.2371 121.103 27.1356ZM157.808 44.7977C166.381 44.7977 172.019 39.85 172.019 32.3134V14.7664H161.663V30.8751C161.663 33.2339 160.11 34.7873 157.808 34.7873C155.507 34.7873 153.954 33.2339 153.954 30.8751V14.7664H143.598V32.3134C143.598 39.85 149.236 44.7977 157.808 44.7977ZM196.93 42.2663C194.916 43.8772 192.442 44.7977 189.566 44.7977C181.626 44.7977 175.701 38.1816 175.701 29.4369C175.701 20.6921 181.626 14.076 189.566 14.076C192.442 14.076 194.916 14.9965 196.93 16.6074V14.7664H207.285V44.1073H196.93V42.2663ZM191.637 34.7873C188.588 34.7873 186.344 32.486 186.344 29.4369C186.344 26.3877 188.588 24.0865 191.637 24.0865C194.686 24.0865 196.93 26.3877 196.93 29.4369C196.93 32.486 194.686 34.7873 191.637 34.7873ZM223.394 30.9902V44.1073H213.038V14.7664H223.394V17.2402C225.235 15.3992 227.479 14.3061 230.125 14.3061H231.564V24.9494H230.125C225.638 24.9494 223.394 27.3082 223.394 30.9902ZM243.786 29.4369C243.786 32.486 246.029 34.7873 249.079 34.7873C252.128 34.7873 254.371 32.486 254.371 29.4369C254.371 26.3877 252.128 24.0865 249.079 24.0865C246.029 24.0865 243.786 26.3877 243.786 29.4369Z" fill="black"/>
<path fill-rule="evenodd" clip-rule="evenodd" d="M14.5359 0H44.4005C52.4284 0 58.9363 6.50793 58.9363 14.5359V44.4005C58.9363 52.4284 52.4284 58.9363 44.4005 58.9363H14.5359C6.50793 58.9363 0 52.4284 0 44.4005V14.5359C0 6.50793 6.50793 0 14.5359 0Z" fill="url(#paint0_linear)"/>
<path fill-rule="evenodd" clip-rule="evenodd" d="M15.0645 3.43575H43.8719C50.2943 3.43575 55.5006 8.64209 55.5006 15.0644V43.8719C55.5006 50.2942 50.2943 55.5006 43.8719 55.5006H15.0645C8.64213 55.5006 3.43579 50.2942 3.43579 43.8719V15.0644C3.43579 8.64209 8.64213 3.43575 15.0645 3.43575ZM43.8719 4.22861H15.0645C9.08001 4.22861 4.22865 9.07997 4.22865 15.0644V43.8719C4.22865 49.8563 9.08001 54.7077 15.0645 54.7077H43.8719C49.8564 54.7077 54.7077 49.8563 54.7077 43.8719V15.0644C54.7077 9.07997 49.8564 4.22861 43.8719 4.22861Z" fill="white"/>
<path fill-rule="evenodd" clip-rule="evenodd" d="M25.229 9.23923C23.1238 9.23923 21.3967 11.0383 21.3967 13.2311C21.3967 15.424 23.1238 17.2231 25.229 17.2231C27.3341 17.2231 29.0612 15.424 29.0612 13.2311C29.0612 11.0383 27.3341 9.23923 25.229 9.23923Z" fill="white"/>
<path fill-rule="evenodd" clip-rule="evenodd" d="M21.5009 18.7406C19.4365 19.2966 16.4691 20.8541 14.7452 23.7847C13.3125 26.2203 12.2714 29.7377 11.9828 31.4381C11.9233 31.9075 12.2489 32.3956 12.7061 32.5226C13.1633 32.6496 13.6952 32.3997 13.8879 31.9673C15.0044 29.1659 15.7391 27.2741 16.6517 26.0726C17.3796 25.1143 18.1989 24.5903 19.7122 24.3917C19.7122 24.3917 19.2985 26.4535 19.0917 27.4843C18.8197 28.8399 17.9335 30.1955 17.6615 31.5511C17.3895 32.9067 18.0974 34.0173 18.6823 34.6278C23.1086 39.2484 28.1925 43.5237 30.5646 48.1578C30.798 48.5958 31.3905 48.802 31.8467 48.6037C32.3028 48.4056 32.5547 47.8326 32.3916 47.364C32.378 47.3262 32.3584 47.2929 32.3447 47.2551C30.3421 41.7043 27.1268 37.1526 24.8808 32.3293L25.9894 27.8158C26.9527 28.6068 28.1195 29.2033 29.331 29.6679C31.2124 30.3894 33.2133 30.8345 34.7026 31.2243C35.1612 31.333 35.6796 31.0679 35.8586 30.6332C36.0375 30.1985 35.8552 29.6469 35.4521 29.4033C34.3742 28.783 31.1285 26.8124 29.5028 25.9637C29.5028 25.9637 32.3707 27.4877 29.5184 25.9481C26.6661 24.4085 28.1032 20.736 26.6661 19.4585C25.229 18.1811 23.5653 18.1846 21.5009 18.7406Z" fill="white"/>
<path fill-rule="evenodd" clip-rule="evenodd" d="M17.0337 33.9891C17.0337 33.9891 16.1142 39.268 14.982 41.3796C13.8498 43.4914 12.2698 45.5006 10.7357 46.7331C10.3575 47.0445 10.264 47.6669 10.533 48.0824C10.802 48.4979 11.3939 48.6453 11.8163 48.4021C12.3197 48.0617 12.8541 47.7211 13.2713 47.4204C14.3953 46.608 15.6364 45.5706 16.7931 44.4028C18.4773 42.7024 21.237 38.7794 21.237 38.7794C21.237 38.7794 18.0435 35.7456 17.5645 35.1069C17.0855 34.4681 17.0337 33.9891 17.0337 33.9891Z" fill="white"/>
<path fill-rule="evenodd" clip-rule="evenodd" d="M41.516 21.0553C40.0249 21.0553 38.8015 22.3146 38.8015 23.8496C38.8015 25.3846 40.0249 26.644 41.516 26.644C43.0072 26.644 44.2305 25.3846 44.2305 23.8496C44.2305 22.3146 43.0072 21.0553 41.516 21.0553Z" fill="white"/>
<path fill-rule="evenodd" clip-rule="evenodd" d="M38.8588 27.6896C37.4275 28.0765 35.4482 29.3585 33.7319 31.1991C32.4518 32.572 32.2517 33.875 32.0516 35.0581C32.0104 35.3846 32.2361 35.7242 32.5531 35.8126C32.8701 35.9009 33.2389 35.7271 33.3724 35.4262C33.8515 34.1488 34.2968 33.1495 35.2886 32.3923C36.2803 31.6352 37.6186 31.6214 37.6186 31.6214C37.6186 31.6214 37.3318 33.0559 37.1884 33.7731C36.9998 34.7163 36.3854 35.6594 36.1968 36.6026C36.0082 37.5458 36.499 38.3185 36.9045 38.7432C39.9734 41.958 43.4982 44.9326 45.1429 48.1568C45.3047 48.4616 45.7155 48.605 46.0318 48.4671C46.3481 48.3292 46.5227 47.9305 46.4096 47.6045C46.4002 47.5782 46.3866 47.555 46.3771 47.5287C44.9886 43.6667 42.7594 40.4999 41.2021 37.144L41.9708 34.0037C42.6387 34.5541 43.4477 34.9691 44.2876 35.2923C45.5921 35.7944 46.9794 36.104 48.0119 36.3752C48.3299 36.4509 48.6893 36.2664 48.8134 35.964C48.9374 35.6615 48.8111 35.2777 48.5316 35.1082C47.7843 34.6767 45.5339 33.3056 44.4067 32.7151C44.4067 32.7151 46.3952 33.7755 44.4175 32.7043C42.4399 31.6331 43.6577 29.0779 42.4399 28.1891C41.2221 27.3004 40.2901 27.3028 38.8588 27.6896Z" fill="white"/>
<path fill-rule="evenodd" clip-rule="evenodd" d="M35.6748 38.6197C35.6748 38.6197 35.0258 42.2743 34.2265 43.7363C33.4273 45.1982 32.3121 46.5892 31.2292 47.4425C30.9622 47.6581 30.8962 48.089 31.0861 48.3766C31.276 48.6643 31.6938 48.7664 31.9919 48.5979C32.3473 48.3623 32.7245 48.1265 33.019 47.9183C33.8125 47.3559 34.6885 46.6377 35.505 45.8292C36.6938 44.652 38.6419 41.9361 38.6419 41.9361C38.6419 41.9361 36.3876 39.8357 36.0495 39.3936C35.7114 38.9514 35.6748 38.6197 35.6748 38.6197Z" fill="white"/>
<defs>
<linearGradient id="paint0_linear" x1="58.9363" y1="58.9363" x2="58.9363" y2="0" gradientUnits="userSpaceOnUse">
<stop stop-color="#0077CF"/>
<stop offset="1" stop-color="#4EC3E0"/>
</linearGradient>
</defs>
</svg>
